<?xml version="1.0" encoding="utf-8"?><!DOCTYPE svg PUBLIC "-//W3C//DTD SVG 1.1//EN" "http://www.w3.org/Graphics/SVG/1.1/DTD/svg11.dtd"><svg xmlns="http://www.w3.org/2000/svg" xmlns:xlink="http://www.w3.org/1999/xlink"><symbol viewBox="-110 1 511 512" id="facebook" xmlns="http://www.w3.org/2000/svg"><path d="M180 512H98.008c-13.695 0-24.836-11.14-24.836-24.836V302.227H25.336C11.64 302.227.5 291.082.5 277.39v-79.246c0-13.696 11.14-24.836 24.836-24.836h47.836v-39.684c0-39.348 12.355-72.824 35.726-96.805C132.375 12.73 165.184 0 203.778 0l62.53.102c13.672.023 24.794 11.164 24.794 24.835v73.579c0 13.695-11.137 24.836-24.829 24.836l-42.101.015c-12.84 0-16.11 2.574-16.809 3.363-1.152 1.31-2.523 5.008-2.523 15.223v31.352h58.27c4.386 0 8.636 1.082 12.288 3.12 7.88 4.403 12.778 12.727 12.778 21.723l-.031 79.247c0 13.687-11.141 24.828-24.836 24.828h-58.47v184.941C204.84 500.86 193.696 512 180 512zm-76.813-30.016h71.633V288.79c0-9.144 7.442-16.582 16.582-16.582h66.727l.027-68.883h-66.758c-9.14 0-16.578-7.437-16.578-16.582v-44.789c0-11.726 1.192-25.062 10.043-35.086 10.696-12.117 27.551-13.515 39.301-13.515l36.922-.016V30.109l-57.332-.093c-62.024 0-100.566 39.703-100.566 103.609v53.117c0 9.14-7.438 16.582-16.579 16.582H30.516v68.883h56.093c9.141 0 16.579 7.438 16.579 16.582zM266.25 30.117h.004zm0 0"/></symbol><symbol viewBox="0 0 169.063 169.063" id="instagram" xmlns="http://www.w3.org/2000/svg"><path d="M122.406 0H46.654C20.929 0 0 20.93 0 46.655v75.752c0 25.726 20.929 46.655 46.654 46.655h75.752c25.727 0 46.656-20.93 46.656-46.655V46.655C169.063 20.93 148.133 0 122.406 0zm31.657 122.407c0 17.455-14.201 31.655-31.656 31.655H46.654C29.2 154.063 15 139.862 15 122.407V46.655C15 29.201 29.2 15 46.654 15h75.752c17.455 0 31.656 14.201 31.656 31.655v75.752z"/><path d="M84.531 40.97c-24.021 0-43.563 19.542-43.563 43.563 0 24.02 19.542 43.561 43.563 43.561s43.563-19.541 43.563-43.561c0-24.021-19.542-43.563-43.563-43.563zm0 72.123c-15.749 0-28.563-12.812-28.563-28.561 0-15.75 12.813-28.563 28.563-28.563s28.563 12.813 28.563 28.563c0 15.749-12.814 28.561-28.563 28.561zM129.921 28.251c-2.89 0-5.729 1.17-7.77 3.22a11.053 11.053 0 0 0-3.23 7.78c0 2.891 1.18 5.73 3.23 7.78 2.04 2.04 4.88 3.22 7.77 3.22 2.9 0 5.73-1.18 7.78-3.22 2.05-2.05 3.22-4.89 3.22-7.78 0-2.9-1.17-5.74-3.22-7.78-2.04-2.05-4.88-3.22-7.78-3.22z"/></symbol><symbol viewBox="0 -47 512 512" id="twitter" xmlns="http://www.w3.org/2000/svg"><path d="M512 55.965c-32.207 1.484-31.504 1.363-35.145 1.668L495.93 3.16s-59.54 21.902-74.633 25.82c-39.64-35.628-98.563-37.203-140.688-11.312-34.496 21.207-53.011 57.625-46.836 100.191C166.637 108.543 110.07 76.72 65.41 23.07L51.285 6.105 40.73 25.488C27.39 49.98 22.96 77.984 28.254 104.34A113.287 113.287 0 0 0 39.23 135.12l-12.117-4.695-1.437 20.246c-1.457 20.566 5.39 44.574 18.32 64.215a114.185 114.185 0 0 0 14.27 17.597l-6.262-.96 7.64 23.199c10.043 30.48 30.903 54.062 57.973 67.172-27.035 11.472-48.875 18.793-84.773 30.601L0 363.293l30.336 16.586c11.566 6.324 52.437 27.445 92.82 33.781 89.766 14.078 190.832 2.613 258.871-58.664 57.309-51.613 76.114-125.031 72.207-201.433-.59-11.567 2.579-22.606 8.922-31.079 12.707-16.964 48.766-66.406 48.844-66.52zm-72.832 48.55c-10.535 14.067-15.813 32.032-14.867 50.579 3.941 77.066-17.028 136.832-62.328 177.629-52.918 47.66-138.274 66.367-234.172 51.324-17.367-2.723-35.317-8.82-50.172-14.91 30.098-10.356 53.34-19.586 90.875-37.352l52.398-24.8-57.851-3.704c-27.711-1.773-50.785-15.203-64.969-37.008a103.763 103.763 0 0 0 22.023-3.671l55.176-15.368-55.636-13.625c-27.036-6.62-42.446-22.797-50.614-35.203-5.363-8.152-8.867-16.504-10.969-24.203 5.579 1.496 12.083 2.563 22.57 3.602l51.497 5.093-40.8-31.828c-29.4-22.93-41.18-57.379-32.544-90.496 91.75 95.164 199.477 88.012 210.32 90.528-2.386-23.184-2.449-23.239-3.074-25.446-13.886-49.09 16.547-74.015 30.274-82.453 28.672-17.621 74.183-20.277 105.707 8.754 6.808 6.266 16.015 8.73 24.633 6.59 7.734-1.922 14.082-3.957 20.296-6.172L434.004 89.32l16.516.012a8240.32 8240.32 0 0 1-11.352 15.184zm0 0"/></symbol><symbol viewBox="0 -62 512.002 512" id="youtube" xmlns="http://www.w3.org/2000/svg"><path d="M334.809 170.992l-113.114-61.89c-6.504-3.559-14.191-3.426-20.566.351-6.379 3.781-10.184 10.461-10.184 17.875v122.719c0 7.379 3.782 14.047 10.118 17.832 3.308 1.976 6.976 2.969 10.652 2.969a20.74 20.74 0 0 0 9.848-2.504L334.68 207.52a20.772 20.772 0 0 0 10.937-18.223 20.763 20.763 0 0 0-10.808-18.305zm-113.86 63.617v-91.718l84.54 46.257zm0 0"/><path d="M508.234 91.527l-.023-.234c-.434-4.121-4.75-40.777-22.57-59.422C465.043 9.941 441.69 7.277 430.46 6a135.45 135.45 0 0 1-2.543-.305l-.895-.093C359.336.68 257.113.008 256.09.004L256 0l-.09.004C254.887.008 152.664.68 84.367 5.602l-.902.093c-.727.098-1.528.188-2.399.29-11.101 1.28-34.203 3.949-54.859 26.671C9.234 51.102 4.328 86.973 3.824 91.004l-.058.523C3.613 93.242 0 134.067 0 175.051v38.312c0 40.985 3.613 81.809 3.766 83.528l.027.257c.434 4.055 4.746 40.04 22.484 58.692 19.368 21.195 43.856 24 57.028 25.508 2.082.238 3.875.441 5.097.656l1.184.164c39.082 3.719 161.617 5.55 166.812 5.625l.157.004.156-.004c1.023-.004 103.242-.676 170.93-5.598l.894-.093c.856-.114 1.817-.215 2.871-.325 11.04-1.172 34.016-3.605 54.387-26.02 16.973-18.448 21.883-54.32 22.383-58.347l.058-.523c.153-1.719 3.77-42.54 3.77-83.524v-38.312c-.004-40.985-3.617-81.805-3.77-83.524zm-26.238 121.836c0 37.934-3.312 77-3.625 80.586-1.273 9.88-6.45 32.574-14.719 41.563-12.75 14.027-25.847 15.418-35.41 16.43a164.16 164.16 0 0 0-3.195.359c-65.469 4.734-163.832 5.46-168.363 5.488-5.082-.074-125.825-1.922-163.715-5.441-1.942-.317-4.04-.559-6.25-.809-11.215-1.285-26.567-3.043-38.371-16.027l-.278-.297c-8.125-8.465-13.152-29.688-14.43-41.149-.238-2.71-3.636-42.238-3.636-80.703v-38.312c0-37.89 3.305-76.914 3.625-80.574 1.52-11.637 6.793-32.957 14.719-41.575 13.14-14.453 26.996-16.054 36.16-17.113.875-.102 1.691-.195 2.445-.293 66.422-4.758 165.492-5.465 169.047-5.492 3.555.023 102.59.734 168.422 5.492.808.102 1.691.203 2.64.313 9.426 1.074 23.672 2.699 36.747 16.644l.12.129c8.126 8.465 13.153 30.059 14.43 41.75.227 2.559 3.637 42.172 3.637 80.719zm0 0"/></symbol></svg>